<svg width="32" height="32" viewBox="0 0 32 32" fill="none" xmlns="http://www.w3.org/2000/svg">
<path d="M32 16C32 24.8366 24.8366 32 16 32C7.16344 32 0 24.8366 0 16C0 7.16344 7.16344 0 16 0C24.8366 0 32 7.16344 32 16Z" fill="#FFD600"/>
<path d="M6.32298 15.6339L10.5364 17.2065L12.1672 22.4513C12.2716 22.7872 12.6823 22.9114 12.955 22.6885L15.3036 20.7738C15.5498 20.5732 15.9004 20.5632 16.1577 20.75L20.3938 23.8255C20.6854 24.0375 21.0986 23.8776 21.1718 23.5252L24.2749 8.59852C24.3548 8.21354 23.9765 7.89239 23.6099 8.03416L6.31804 14.7049C5.89131 14.8694 5.89503 15.4736 6.32298 15.6339ZM11.9044 16.3694L20.1389 11.2977C20.2869 11.2069 20.4392 11.407 20.3121 11.5248L13.5162 17.8419C13.2773 18.0643 13.1233 18.3619 13.0796 18.6849L12.8481 20.4004C12.8175 20.6295 12.4957 20.6522 12.4325 20.4305L11.5421 17.3022C11.4402 16.9453 11.5888 16.5642 11.9044 16.3694Z" fill="#2C3E50"/>
</svg>
