<svg width="128" height="44" viewBox="0 0 128 44" fill="none" xmlns="http://www.w3.org/2000/svg">
<path d="M61.037 18.475V8.67501H65.279C66.1563 8.67501 66.9123 8.81968 67.547 9.10901C68.1817 9.38901 68.6717 9.79501 69.017 10.327C69.3624 10.859 69.535 11.4937 69.535 12.231C69.535 12.959 69.3624 13.589 69.017 14.121C68.6717 14.653 68.1817 15.0637 67.547 15.353C66.9123 15.633 66.1563 15.773 65.279 15.773H62.297L63.305 14.751V18.475H61.037ZM63.305 15.003L62.297 13.925H65.153C65.853 13.925 66.3757 13.7757 66.721 13.477C67.0663 13.1783 67.239 12.763 67.239 12.231C67.239 11.6897 67.0663 11.2697 66.721 10.971C66.3757 10.6723 65.853 10.523 65.153 10.523H62.297L63.305 9.44501V15.003Z" fill="#2C3E50"/>
<path d="M71.8369 18.475V8.08701H74.0209V18.475H71.8369Z" fill="#2C3E50"/>
<path d="M79.9259 18.587C79.3005 18.587 78.7405 18.4657 78.2459 18.223C77.7605 17.9803 77.3825 17.6117 77.1119 17.117C76.8412 16.613 76.7059 15.9737 76.7059 15.199V10.943H78.8899V14.877C78.8899 15.5023 79.0205 15.9643 79.2819 16.263C79.5525 16.5523 79.9305 16.697 80.4159 16.697C80.7519 16.697 81.0505 16.627 81.3119 16.487C81.5732 16.3377 81.7785 16.1137 81.9279 15.815C82.0772 15.507 82.1519 15.1243 82.1519 14.667V10.943H84.3359V18.475H82.2639V16.403L82.6419 17.005C82.3899 17.5277 82.0165 17.9243 81.5219 18.195C81.0365 18.4563 80.5045 18.587 79.9259 18.587Z" fill="#2C3E50"/>
<path d="M96.7052 10.831C97.3025 10.831 97.8298 10.9523 98.2872 11.195C98.7539 11.4283 99.1179 11.7923 99.3792 12.287C99.6498 12.7723 99.7852 13.3977 99.7852 14.163V18.475H97.6012V14.499C97.6012 13.8923 97.4752 13.4443 97.2232 13.155C96.9712 12.8657 96.6165 12.721 96.1592 12.721C95.8419 12.721 95.5572 12.7957 95.3052 12.945C95.0532 13.085 94.8572 13.2997 94.7172 13.589C94.5772 13.8783 94.5072 14.247 94.5072 14.695V18.475H92.3232V14.499C92.3232 13.8923 92.1972 13.4443 91.9452 13.155C91.7025 12.8657 91.3525 12.721 90.8952 12.721C90.5779 12.721 90.2932 12.7957 90.0412 12.945C89.7892 13.085 89.5932 13.2997 89.4532 13.589C89.3132 13.8783 89.2432 14.247 89.2432 14.695V18.475H87.0592V10.943H89.1452V13.001L88.7532 12.399C89.0145 11.8857 89.3832 11.4983 89.8592 11.237C90.3445 10.9663 90.8952 10.831 91.5112 10.831C92.2019 10.831 92.8038 11.0083 93.3172 11.363C93.8399 11.7083 94.1852 12.2403 94.3532 12.959L93.5832 12.749C93.8352 12.161 94.2365 11.6943 94.7872 11.349C95.3472 11.0037 95.9865 10.831 96.7052 10.831Z" fill="#2C3E50"/>
<path d="M106.895 18.587C106.232 18.587 105.663 18.447 105.187 18.167C104.711 17.887 104.347 17.4623 104.095 16.893C103.843 16.3143 103.717 15.5863 103.717 14.709C103.717 13.8223 103.847 13.0943 104.109 12.525C104.379 11.9557 104.753 11.531 105.229 11.251C105.705 10.971 106.26 10.831 106.895 10.831C107.604 10.831 108.239 10.9897 108.799 11.307C109.368 11.6243 109.816 12.0723 110.143 12.651C110.479 13.2297 110.647 13.9157 110.647 14.709C110.647 15.493 110.479 16.1743 110.143 16.753C109.816 17.3317 109.368 17.7843 108.799 18.111C108.239 18.4283 107.604 18.587 106.895 18.587ZM102.443 18.475V8.08701H104.627V12.469L104.487 14.695L104.529 16.935V18.475H102.443ZM106.517 16.795C106.881 16.795 107.203 16.711 107.483 16.543C107.772 16.375 108.001 16.137 108.169 15.829C108.346 15.5117 108.435 15.1383 108.435 14.709C108.435 14.2703 108.346 13.897 108.169 13.589C108.001 13.281 107.772 13.043 107.483 12.875C107.203 12.707 106.881 12.623 106.517 12.623C106.153 12.623 105.826 12.707 105.537 12.875C105.247 13.043 105.019 13.281 104.851 13.589C104.683 13.897 104.599 14.2703 104.599 14.709C104.599 15.1383 104.683 15.5117 104.851 15.829C105.019 16.137 105.247 16.375 105.537 16.543C105.826 16.711 106.153 16.795 106.517 16.795Z" fill="#2C3E50"/>
<path d="M116.547 18.587C115.688 18.587 114.932 18.419 114.279 18.083C113.635 17.747 113.135 17.2897 112.781 16.711C112.426 16.123 112.249 15.4557 112.249 14.709C112.249 13.953 112.421 13.2857 112.767 12.707C113.121 12.119 113.602 11.6617 114.209 11.335C114.815 10.999 115.501 10.831 116.267 10.831C117.004 10.831 117.667 10.9897 118.255 11.307C118.852 11.615 119.323 12.063 119.669 12.651C120.014 13.2297 120.187 13.925 120.187 14.737C120.187 14.821 120.182 14.919 120.173 15.031C120.163 15.1337 120.154 15.2317 120.145 15.325H114.027V14.051H118.997L118.157 14.429C118.157 14.037 118.077 13.6963 117.919 13.407C117.76 13.1177 117.541 12.8937 117.261 12.735C116.981 12.567 116.654 12.483 116.281 12.483C115.907 12.483 115.576 12.567 115.287 12.735C115.007 12.8937 114.787 13.1223 114.629 13.421C114.47 13.7103 114.391 14.0557 114.391 14.457V14.793C114.391 15.2037 114.479 15.5677 114.657 15.885C114.843 16.193 115.1 16.431 115.427 16.599C115.763 16.7577 116.155 16.837 116.603 16.837C117.004 16.837 117.354 16.7763 117.653 16.655C117.961 16.5337 118.241 16.3517 118.493 16.109L119.655 17.369C119.309 17.761 118.875 18.0643 118.353 18.279C117.83 18.4843 117.228 18.587 116.547 18.587Z" fill="#2C3E50"/>
<path d="M122.341 18.475V10.943H124.427V13.071L124.133 12.455C124.357 11.923 124.716 11.5217 125.211 11.251C125.705 10.971 126.307 10.831 127.017 10.831V12.847C126.923 12.8377 126.839 12.833 126.765 12.833C126.69 12.8237 126.611 12.819 126.527 12.819C125.929 12.819 125.444 12.9917 125.071 13.337C124.707 13.673 124.525 14.2003 124.525 14.919V18.475H122.341Z" fill="#2C3E50"/>
<path d="M64.257 35.643C63.473 35.643 62.7217 35.5403 62.003 35.335C61.2843 35.1203 60.7057 34.845 60.267 34.509L61.037 32.801C61.457 33.0997 61.9517 33.347 62.521 33.543C63.0997 33.7297 63.683 33.823 64.271 33.823C64.719 33.823 65.0783 33.781 65.349 33.697C65.629 33.6037 65.8343 33.4777 65.965 33.319C66.0957 33.1603 66.161 32.9783 66.161 32.773C66.161 32.5117 66.0583 32.3063 65.853 32.157C65.6477 31.9983 65.377 31.8723 65.041 31.779C64.705 31.6763 64.3317 31.583 63.921 31.499C63.5197 31.4057 63.1137 31.2937 62.703 31.163C62.3017 31.0323 61.933 30.8643 61.597 30.659C61.261 30.4537 60.9857 30.183 60.771 29.847C60.5657 29.511 60.463 29.0817 60.463 28.559C60.463 27.999 60.6123 27.4903 60.911 27.033C61.219 26.5663 61.6763 26.1977 62.283 25.927C62.899 25.647 63.669 25.507 64.593 25.507C65.209 25.507 65.8157 25.5817 66.413 25.731C67.0103 25.871 67.5377 26.0857 67.995 26.375L67.295 28.097C66.8377 27.8357 66.3803 27.6443 65.923 27.523C65.4657 27.3923 65.0177 27.327 64.579 27.327C64.1403 27.327 63.781 27.3783 63.501 27.481C63.221 27.5837 63.0203 27.719 62.899 27.887C62.7777 28.0457 62.717 28.2323 62.717 28.447C62.717 28.699 62.8197 28.9043 63.025 29.063C63.2303 29.2123 63.501 29.3337 63.837 29.427C64.173 29.5203 64.5417 29.6137 64.943 29.707C65.3537 29.8003 65.7597 29.9077 66.161 30.029C66.5717 30.1503 66.945 30.3137 67.281 30.519C67.617 30.7243 67.8877 30.995 68.093 31.331C68.3077 31.667 68.415 32.0917 68.415 32.605C68.415 33.1557 68.261 33.6597 67.953 34.117C67.645 34.5743 67.183 34.943 66.567 35.223C65.9603 35.503 65.1903 35.643 64.257 35.643Z" fill="#2C3E50"/>
<path d="M74.2487 35.587C73.3901 35.587 72.6341 35.419 71.9807 35.083C71.3367 34.747 70.8374 34.2897 70.4827 33.711C70.1281 33.123 69.9507 32.4557 69.9507 31.709C69.9507 30.953 70.1234 30.2857 70.4687 29.707C70.8234 29.119 71.3041 28.6617 71.9107 28.335C72.5174 27.999 73.2034 27.831 73.9687 27.831C74.7061 27.831 75.3688 27.9897 75.9567 28.307C76.5541 28.615 77.0254 29.063 77.3707 29.651C77.7161 30.2297 77.8887 30.925 77.8887 31.737C77.8887 31.821 77.8841 31.919 77.8747 32.031C77.8654 32.1337 77.8561 32.2317 77.8467 32.325H71.7287V31.051H76.6987L75.8587 31.429C75.8587 31.037 75.7794 30.6963 75.6207 30.407C75.4621 30.1177 75.2427 29.8937 74.9627 29.735C74.6827 29.567 74.3561 29.483 73.9827 29.483C73.6094 29.483 73.2781 29.567 72.9887 29.735C72.7087 29.8937 72.4894 30.1223 72.3307 30.421C72.1721 30.7103 72.0927 31.0557 72.0927 31.457V31.793C72.0927 32.2037 72.1814 32.5677 72.3587 32.885C72.5454 33.193 72.8021 33.431 73.1287 33.599C73.4647 33.7577 73.8568 33.837 74.3047 33.837C74.7061 33.837 75.0561 33.7763 75.3547 33.655C75.6627 33.5337 75.9427 33.3517 76.1947 33.109L77.3567 34.369C77.0114 34.761 76.5774 35.0643 76.0547 35.279C75.5321 35.4843 74.9301 35.587 74.2487 35.587Z" fill="#2C3E50"/>
<path d="M80.0428 35.475V27.943H82.1288V30.071L81.8348 29.455C82.0588 28.923 82.4181 28.5217 82.9128 28.251C83.4074 27.971 84.0094 27.831 84.7188 27.831V29.847C84.6255 29.8377 84.5414 29.833 84.4668 29.833C84.3921 29.8237 84.3128 29.819 84.2288 29.819C83.6314 29.819 83.1461 29.9917 82.7728 30.337C82.4088 30.673 82.2268 31.2003 82.2268 31.919V35.475H80.0428Z" fill="#2C3E50"/>
<path d="M89.0212 35.475L85.8572 27.943H88.1112L90.7432 34.425H89.6232L92.3531 27.943H94.4532L91.2752 35.475H89.0212Z" fill="#2C3E50"/>
<path d="M96.0443 35.475V27.943H98.2283V35.475H96.0443ZM97.1363 26.893C96.735 26.893 96.4083 26.7763 96.1563 26.543C95.9043 26.3097 95.7783 26.0203 95.7783 25.675C95.7783 25.3297 95.9043 25.0403 96.1563 24.807C96.4083 24.5737 96.735 24.457 97.1363 24.457C97.5377 24.457 97.8643 24.569 98.1163 24.793C98.3683 25.0077 98.4943 25.2877 98.4943 25.633C98.4943 25.997 98.3683 26.3003 98.1163 26.543C97.8737 26.7763 97.547 26.893 97.1363 26.893Z" fill="#2C3E50"/>
<path d="M104.595 35.587C103.783 35.587 103.06 35.4237 102.425 35.097C101.791 34.761 101.291 34.299 100.927 33.711C100.573 33.123 100.395 32.4557 100.395 31.709C100.395 30.953 100.573 30.2857 100.927 29.707C101.291 29.119 101.791 28.6617 102.425 28.335C103.06 27.999 103.783 27.831 104.595 27.831C105.389 27.831 106.079 27.999 106.667 28.335C107.255 28.6617 107.689 29.133 107.969 29.749L106.275 30.659C106.079 30.3043 105.832 30.043 105.533 29.875C105.244 29.707 104.927 29.623 104.581 29.623C104.208 29.623 103.872 29.707 103.573 29.875C103.275 30.043 103.037 30.281 102.859 30.589C102.691 30.897 102.607 31.2703 102.607 31.709C102.607 32.1477 102.691 32.521 102.859 32.829C103.037 33.137 103.275 33.375 103.573 33.543C103.872 33.711 104.208 33.795 104.581 33.795C104.927 33.795 105.244 33.7157 105.533 33.557C105.832 33.389 106.079 33.123 106.275 32.759L107.969 33.683C107.689 34.2897 107.255 34.761 106.667 35.097C106.079 35.4237 105.389 35.587 104.595 35.587Z" fill="#2C3E50"/>
<path d="M113.569 35.587C112.71 35.587 111.954 35.419 111.301 35.083C110.657 34.747 110.158 34.2897 109.803 33.711C109.448 33.123 109.271 32.4557 109.271 31.709C109.271 30.953 109.444 30.2857 109.789 29.707C110.144 29.119 110.624 28.6617 111.231 28.335C111.838 27.999 112.524 27.831 113.289 27.831C114.026 27.831 114.689 27.9897 115.277 28.307C115.874 28.615 116.346 29.063 116.691 29.651C117.036 30.2297 117.209 30.925 117.209 31.737C117.209 31.821 117.204 31.919 117.195 32.031C117.186 32.1337 117.176 32.2317 117.167 32.325H111.049V31.051H116.019L115.179 31.429C115.179 31.037 115.1 30.6963 114.941 30.407C114.782 30.1177 114.563 29.8937 114.283 29.735C114.003 29.567 113.676 29.483 113.303 29.483C112.93 29.483 112.598 29.567 112.309 29.735C112.029 29.8937 111.81 30.1223 111.651 30.421C111.492 30.7103 111.413 31.0557 111.413 31.457V31.793C111.413 32.2037 111.502 32.5677 111.679 32.885C111.866 33.193 112.122 33.431 112.449 33.599C112.785 33.7577 113.177 33.837 113.625 33.837C114.026 33.837 114.376 33.7763 114.675 33.655C114.983 33.5337 115.263 33.3517 115.515 33.109L116.677 34.369C116.332 34.761 115.898 35.0643 115.375 35.279C114.852 35.4843 114.25 35.587 113.569 35.587Z" fill="#2C3E50"/>
<path d="M41.875 10.475L33.4526 1.7045C32.2917 0.506177 30.3803 0.475874 29.1819 1.63679L28.5856 2.21456C27.1561 3.59942 27.8087 5.97469 29.7017 6.40839C30.2741 6.53855 30.7083 7.00793 30.8248 7.58335C31.016 8.5182 31.7373 9.26635 32.6802 9.48096C33.2462 9.61011 33.687 10.065 33.7981 10.6349C33.8857 11.0851 34.1 11.5164 34.4431 11.8696L35.6437 13.1088C35.924 13.3982 35.9167 13.8585 35.6273 14.1389L29.2925 20.2765L21.3506 12.0791C20.4732 11.1735 18.9878 11.2884 18.2605 12.3188L17.1739 14.0687C16.7609 14.7349 16.7231 15.5683 17.0762 16.2676L17.6623 17.4313C18.1054 18.3106 17.9255 19.3747 17.2182 20.06L2.1902 34.6188C0.343718 36.4077 0.29698 39.3558 2.08583 41.2023C3.88044 43.0529 6.82642 43.092 8.6693 41.3067L15.875 34.475L16.375 34.975C17.149 35.7739 18.5762 35.749 19.375 34.975L22.875 31.475C23.6504 32.2402 24.5882 32.2373 25.375 31.475L28.375 28.475L30.875 30.475C31.666 31.1166 33.1436 31.1844 33.875 30.475L35.375 28.975C36.1739 28.201 36.149 27.2729 35.375 26.475L32.375 23.475L41.875 14.475C43.0733 13.3141 43.0359 11.6733 41.875 10.475ZM9.8378 35.8244L7.35147 38.2331C6.71997 38.844 5.71329 38.8281 5.10146 38.1974C4.49056 37.5659 4.50652 36.5593 5.13713 35.9474L7.62346 33.5387C8.25497 32.9278 9.26165 32.9438 9.87347 33.5744C10.4844 34.2059 10.4684 35.2126 9.8378 35.8244Z" fill="#FFD600"/>
<path d="M41.375 9.97502C42.5356 11.1731 42.573 12.8144 41.375 13.975L31.875 22.975L29.2925 20.2765L35.6273 14.1389C35.9167 13.8585 35.924 13.3982 35.6437 13.1088L34.4431 11.8696C34.1 11.5164 33.8857 11.0851 33.7981 10.6349C33.687 10.065 33.2462 9.61011 32.6802 9.48096C31.7386 9.26665 31.0162 8.51957 30.8248 7.58335C30.7083 7.00793 30.2741 6.53855 29.7017 6.40839C27.8072 5.9744 27.157 3.59852 28.5856 2.21456L29.1819 1.63679C30.3803 0.475874 32.2917 0.506177 33.4526 1.7045L41.375 9.97502Z" fill="#2C3E50"/>
<path d="M28.375 28.475L25.375 31.475C24.5882 32.2373 24.1503 32.7402 23.375 31.975C23.1157 31.7192 23.9538 32.6695 20.8707 29.4871L23.4522 26.9852C24.2705 26.1924 25.5506 26.1362 26.4351 26.8531L28.375 28.475Z" fill="#2C3E50"/>
<path d="M30.4224 19.1822L29.2925 20.2765L21.3506 12.0791C21.0568 11.7759 20.6965 11.5871 20.3181 11.5092C20.243 10.7287 20.5417 9.92131 21.2086 9.37379C22.6279 8.20718 24.8133 8.98182 25.1673 10.7995C25.2794 11.3703 25.7192 11.8261 26.2861 11.9552C27.2238 12.1686 27.9592 12.9187 28.1449 13.8738C28.256 14.4446 28.6967 14.8995 29.2637 15.0287C31.1384 15.4562 31.8283 17.8202 30.4224 19.1822Z" fill="#8C9EB0"/>
<path d="M22.375 31.475L17.9077 35.8022C17.6188 36.082 17.1578 36.0747 16.878 35.7858L15.6414 34.6386L21.1414 29.1386L22.3914 30.445C22.6713 30.7341 22.664 31.1952 22.375 31.475Z" fill="#8C9EB0"/>
<path d="M18.8663 12.7233C19.3347 12.0802 20.272 12.0121 20.8279 12.5859L31.375 23.475C31.655 23.7639 32.5862 23.7548 32.875 23.475L41.875 14.975C43.3629 13.5336 43.9872 11.532 42.5456 10.0439L33.9756 1.19751C32.5374 -0.286895 30.1598 -0.324498 28.6754 1.11348L28.0789 1.69134C26.2632 3.45036 27.0552 6.55136 29.54 7.11807C29.8249 7.18313 30.0492 7.42258 30.1114 7.72847C30.3561 8.92965 31.2848 9.91052 32.5182 10.1912C32.8051 10.2565 33.0267 10.4852 33.0828 10.774C33.2004 11.3786 33.4899 11.9329 33.9199 12.3767L35.1205 13.616L33.5988 15.0901C33.31 15.37 33.3026 15.831 33.5825 16.1198C33.8624 16.4087 34.3233 16.416 34.6123 16.1362L36.6568 14.1554C36.9457 13.8756 36.953 13.4146 36.6731 13.1257L34.9658 11.3634C34.7327 11.1228 34.576 10.8229 34.5124 10.496C34.3462 9.6415 33.6903 8.96439 32.8414 8.77112C32.1769 8.61993 31.6711 8.08987 31.5385 7.438C31.3624 6.57303 30.7051 5.89008 29.8637 5.69811C28.5125 5.38981 28.0929 3.70561 29.0923 2.73746L29.6888 2.1596C30.5962 1.2804 32.05 1.30327 32.9293 2.21098L41.4995 11.0573C42.3807 11.9667 41.785 13.0936 40.875 13.975L32.1734 22.2094L30.3219 20.2927L30.9286 19.705C32.7528 17.9375 31.8524 14.8706 29.4248 14.3184C29.1378 14.2531 28.9159 14.0241 28.8598 13.7352C28.6203 12.5029 27.6724 11.5242 26.448 11.2455C26.1611 11.1803 25.939 10.9503 25.8823 10.6599C25.5602 9.00903 24.0102 7.90305 22.3436 8.12126C21.9447 8.1733 21.6636 8.53884 21.7158 8.93761C21.7678 9.33647 22.1329 9.61794 22.5321 9.56545C23.459 9.44486 24.2818 10.0632 24.4528 10.939C24.6198 11.7948 25.2762 12.4726 26.1248 12.6657C26.7863 12.8163 27.3005 13.3468 27.4299 14.0132C27.5962 14.868 28.2524 15.5453 29.1015 15.7385C30.4191 16.0384 30.9021 17.7024 29.9149 18.6589L29.3083 19.2466L21.8737 11.5725C20.6775 10.3377 18.6548 10.497 17.6651 11.8989C17.6462 11.9256 17.4248 12.2838 16.5549 13.6851C16.0116 14.5604 15.962 15.6756 16.4255 16.5957L17.0116 17.7591C17.3126 18.3567 17.192 19.0711 16.7114 19.5367L1.68344 34.0958C0.650541 35.0965 0.0690639 36.4394 0.046266 37.8774C-0.00110765 40.8656 2.38054 43.2967 5.34442 43.3437C6.72301 43.3655 8.10991 42.8627 9.17601 41.8298L20.8539 30.5166L21.7194 31.4422L18.1755 34.8755C17.96 35.0843 17.6884 35.2079 17.3902 35.233C16.9895 35.2667 16.6919 35.6191 16.7257 36.0199C16.7595 36.4213 17.1126 36.7184 17.5125 36.6844C18.1405 36.6315 18.7358 36.3605 19.1889 35.9216L22.8127 32.4109C23.8241 32.9844 25.1599 32.8738 26.0696 31.9925C26.9794 31.1112 26.5848 31.4933 26.5848 31.4933C26.8737 31.2134 26.881 30.7523 26.6011 30.4635C26.3213 30.1746 25.8603 30.1673 25.5714 30.4472L25.0563 30.9463C24.5461 31.4404 23.7333 31.4278 23.239 30.9175L21.8999 29.503L23.9593 27.5079C24.5116 26.9727 25.3787 26.9343 25.9764 27.4189L29.9149 30.4472C30.9914 31.3201 32.8795 31.4279 33.875 30.4635L35.375 28.975C36.875 27.475 35.9268 26.0608 34.875 24.975C34.5952 24.6862 34.1639 24.6952 33.875 24.975C33.5861 25.2549 33.7514 25.9987 34.0313 26.2876C34.5243 26.7965 34.8839 27.4819 34.375 27.975L32.875 29.475C32.4083 29.927 30.8797 29.3841 30.375 28.975L26.8939 26.2876C25.7245 25.3393 24.0271 25.4142 22.9459 26.4619L8.16263 40.7836C6.60731 42.2905 4.11582 42.251 2.60887 40.6956C1.09843 39.1364 1.13763 36.6524 2.69692 35.1418L17.7252 20.5827C18.6657 19.6715 18.9018 18.2734 18.3127 17.1038L17.7265 15.9404C17.4897 15.4702 17.515 14.9004 17.7926 14.4531L18.8663 12.7233Z" fill="#061828"/>
<path d="M7.84556 36.7818C7.58769 37.0396 7.58777 37.4576 7.84556 37.7154C8.10334 37.9732 8.5213 37.9732 8.77908 37.7154L10.1316 36.3629C10.9513 35.5432 10.9513 34.2095 10.1316 33.3898C9.3119 32.5701 7.97816 32.57 7.15843 33.3898L4.93969 35.6085C4.12004 36.4282 4.12004 37.7619 4.93969 38.5816C5.19756 38.8395 5.61543 38.8394 5.8733 38.5816C6.13108 38.3239 6.13117 37.9059 5.8733 37.648C5.5684 37.3431 5.5684 36.847 5.8733 36.542L8.09204 34.3233C8.39694 34.0184 8.89312 34.0183 9.19803 34.3233C9.50293 34.6282 9.50293 35.1244 9.19803 35.4293L7.84556 36.7818Z" fill="#061828"/>
<path fill-rule="evenodd" clip-rule="evenodd" d="M0 0.875C0 0.391751 0.391751 0 0.875 0H8.875C9.35825 0 9.75 0.391751 9.75 0.875C9.75 1.35825 9.35825 1.75 8.875 1.75H1.75V8.875C1.75 9.35825 1.35825 9.75 0.875 9.75C0.391751 9.75 0 9.35825 0 8.875V0.875Z" fill="#061828"/>
<path fill-rule="evenodd" clip-rule="evenodd" d="M43.25 42.475C43.25 42.9583 42.8582 43.35 42.375 43.35H34.375C33.8918 43.35 33.5 42.9583 33.5 42.475C33.5 41.9918 33.8918 41.6 34.375 41.6H41.5V34.475C41.5 33.9918 41.8918 33.6 42.375 33.6C42.8582 33.6 43.25 33.9918 43.25 34.475V42.475Z" fill="#061828"/>
</svg>
