<svg width="32" height="32" viewBox="0 0 32 32" fill="none" xmlns="http://www.w3.org/2000/svg">
<path d="M32 16C32 24.8366 24.8366 32 16 32C7.16344 32 0 24.8366 0 16C0 7.16344 7.16344 0 16 0C24.8366 0 32 7.16344 32 16Z" fill="#FFD600"/>
<path fill-rule="evenodd" clip-rule="evenodd" d="M16.623 12.3795C16.6339 12.1695 16.8124 12.0082 17.0218 12.0191C17.8049 12.0601 18.4564 12.298 18.9205 12.7793C19.3827 13.2589 19.6093 13.9288 19.6491 14.7333C19.6595 14.9434 19.4982 15.1221 19.2889 15.1325C19.0795 15.1429 18.9014 14.9811 18.891 14.7711C18.857 14.0824 18.6686 13.6135 18.3749 13.3088C18.0829 13.0059 17.6373 12.8139 16.9822 12.7796C16.7729 12.7687 16.6121 12.5896 16.623 12.3795Z" fill="#2C3E50"/>
<path fill-rule="evenodd" clip-rule="evenodd" d="M16.0475 10.3282C16.0628 10.1184 16.2447 9.96085 16.4537 9.9762C18.0475 10.0932 19.3303 10.6396 20.2647 11.6629C21.1889 12.6762 21.6284 13.9369 21.5965 15.4154C21.5919 15.6256 21.4184 15.7924 21.2088 15.7878C20.9993 15.7833 20.8331 15.6091 20.8376 15.3989C20.8657 14.095 20.4836 13.0309 19.7049 12.1772C18.9285 11.3271 17.8433 10.8418 16.3983 10.7357C16.1893 10.7204 16.0322 10.5379 16.0475 10.3282Z" fill="#2C3E50"/>
<path fill-rule="evenodd" clip-rule="evenodd" d="M15.3776 8.37812C15.379 8.16783 15.5501 7.99854 15.7597 8.00001C17.9622 8.0154 19.8238 8.75104 21.3186 10.213C22.8258 11.6871 23.5711 13.694 23.59 16.1866C23.5916 16.3969 23.423 16.5686 23.2134 16.5702C23.0038 16.5718 22.8326 16.4027 22.831 16.1924C22.8133 13.8567 22.1207 12.0611 20.7887 10.7583C19.4442 9.44324 17.7748 8.77565 15.7544 8.76153C15.5448 8.76007 15.3761 8.58841 15.3776 8.37812Z" fill="#2C3E50"/>
<path d="M17.0771 19.8522C17.0771 19.8522 17.6106 19.8973 17.8978 19.5423L18.4578 18.8354C18.728 18.4849 19.3798 18.2613 20.0182 18.6182C20.4966 18.8919 20.961 19.1895 21.4098 19.5098C21.8334 19.8224 22.7009 20.5487 22.7036 20.5487C23.1169 20.8987 23.2124 21.4127 22.931 21.9548C22.931 21.9579 22.9287 21.9633 22.9287 21.966C22.6188 22.5051 22.2254 22.9911 21.7632 23.406C21.7578 23.4087 21.7578 23.4114 21.7528 23.4141C21.3512 23.7508 20.9567 23.9422 20.5693 23.9882C20.5122 23.9983 20.4542 24.0019 20.3964 23.9991C20.2255 24.0007 20.0555 23.9745 19.8931 23.9214L19.8805 23.9029C19.2835 23.7339 18.2868 23.3112 16.6269 22.3924C15.6663 21.867 14.7519 21.261 13.8933 20.5807C13.4629 20.24 13.0524 19.8747 12.6638 19.4868L12.5396 19.3621C12.5256 19.3485 12.5121 19.3345 12.4981 19.3205C12.1115 18.9306 11.7474 18.5188 11.4078 18.087C10.7299 17.2257 10.1258 16.3083 9.60202 15.3448C8.68632 13.679 8.26494 12.6799 8.09657 12.08L8.07811 12.0674C8.02533 11.9044 7.99933 11.7338 8.00113 11.5624C7.99797 11.5044 8.00145 11.4462 8.01148 11.389C8.0598 11.0008 8.25083 10.6047 8.58458 10.2006C8.58728 10.1956 8.58998 10.1956 8.59268 10.1902C9.0061 9.72646 9.49059 9.33185 10.0279 9.02124C10.0306 9.02124 10.036 9.01853 10.0392 9.01853C10.5794 8.73622 11.0917 8.83198 11.4402 9.24437C11.4429 9.24708 12.1654 10.1175 12.4756 10.5425C12.7949 10.9932 13.0915 11.4596 13.3643 11.94C13.72 12.5801 13.4971 13.2354 13.1478 13.5056L12.4432 14.0675C12.0876 14.3556 12.1344 14.8909 12.1344 14.8909C12.1344 14.8909 13.1779 18.8535 17.0771 19.8522Z" fill="#2C3E50"/>
</svg>
